<svg xmlns="http://www.w3.org/2000/svg" viewBox="0 0 1280 720"><defs><linearGradient id="sky" y2="1"><stop stop-color="#31547b"/><stop offset="1" stop-color="#e98d73"/></linearGradient><pattern id="stripe" width="80" height="80" patternUnits="userSpaceOnUse"><path fill="#f4d570" d="M0 0h40v80H0z"/><path fill="#c9484c" d="M40 0h40v80H40z"/></pattern></defs><rect width="1280" height="720" fill="url(#sky)"/><circle cx="1080" cy="128" r="72" fill="#ffe2a1" opacity=".7"/><g fill="#172938" opacity=".65"><path d="M0 510h1280v120H0z"/><path d="M80 510V290h210v220zm910 0V330h220v180z"/></g><path fill="url(#stripe)" stroke="#352136" stroke-width="10" d="m40 310 145-110 145 110v210H40zm920 40 140-100 140 100v170H960Z"/><g stroke="#342137" stroke-width="12" fill="none"><circle cx="650" cy="330" r="185"/><path d="M650 145v370M465 330h370m-316-131 262 262m0-262L519 461"/></g><g fill="#f5d66d" stroke="#342137" stroke-width="5"><circle cx="650" cy="145" r="18"/><circle cx="650" cy="515" r="18"/><circle cx="465" cy="330" r="18"/><circle cx="835" cy="330" r="18"/></g><path fill="#273847" d="M0 520q100-45 200 0t200 0 200 0 200 0 200 0 280 0v120H0Z"/></svg>
